<svg width="21" height="20" viewBox="0 0 21 20" fill="none" xmlns="http://www.w3.org/2000/svg">
    <path
        d="M4.875 2.5C5.04076 2.5 5.19973 2.56585 5.31694 2.68306C5.43415 2.80027 5.5 2.95924 5.5 3.125V8.4543L14.5926 3.01211C14.8026 2.88436 15.0431 2.81537 15.2889 2.81235C15.5347 2.80932 15.7768 2.87238 15.9898 2.99492C16.4586 3.26055 16.75 3.77617 16.75 4.33594V15.6641C16.75 16.2254 16.4586 16.7395 15.9898 17.0051C15.7767 17.1275 15.5346 17.1905 15.2888 17.1874C15.043 17.1843 14.8026 17.1153 14.5926 16.9875L5.5 11.5457V16.875C5.5 17.0408 5.43415 17.1997 5.31694 17.3169C5.19973 17.4342 5.04076 17.5 4.875 17.5C4.70924 17.5 4.55027 17.4342 4.43306 17.3169C4.31585 17.1997 4.25 17.0408 4.25 16.875V3.125C4.25 2.95924 4.31585 2.80027 4.43306 2.68306C4.55027 2.56585 4.70924 2.5 4.875 2.5Z"
        fill="white" />
</svg>