<svg width="21" height="20" viewBox="0 0 21 20" fill="none" xmlns="http://www.w3.org/2000/svg">
<path d="M16.125 2.5C15.9592 2.5 15.8003 2.56585 15.6831 2.68306C15.5658 2.80027 15.5 2.95924 15.5 3.125V8.4543L6.40742 3.01211C6.19741 2.88436 5.95694 2.81537 5.71114 2.81235C5.46534 2.80932 5.22325 2.87238 5.01016 2.99492C4.54141 3.26055 4.25 3.77617 4.25 4.33594V15.6641C4.25 16.2254 4.54141 16.7395 5.01016 17.0051C5.2233 17.1275 5.46541 17.1905 5.71119 17.1874C5.95698 17.1843 6.19743 17.1153 6.40742 16.9875L15.5 11.5457V16.875C15.5 17.0408 15.5658 17.1997 15.6831 17.3169C15.8003 17.4342 15.9592 17.5 16.125 17.5C16.2908 17.5 16.4497 17.4342 16.5669 17.3169C16.6842 17.1997 16.75 17.0408 16.75 16.875V3.125C16.75 2.95924 16.6842 2.80027 16.5669 2.68306C16.4497 2.56585 16.2908 2.5 16.125 2.5Z" fill="white"/>
</svg>
